<?xml version="1.0" standalone="no"?>
<!DOCTYPE svg PUBLIC "-//W3C//DTD SVG 20010904//EN"
 "http://www.w3.org/TR/2001/REC-SVG-20010904/DTD/svg10.dtd">
<svg version="1.0" xmlns="http://www.w3.org/2000/svg"
 width="300.000000pt" height="360.000000pt" viewBox="0 0 300.000000 360.000000"
 preserveAspectRatio="xMidYMid meet">
<metadata>
Created by potrace 1.15, written by Peter Selinger 2001-2017
</metadata>
<g transform="translate(0.000000,360.000000) scale(0.100000,-0.100000)"
fill="#000000" stroke="none">
<path d="M1418 3235 c-2 -3 -25 -9 -49 -14 -109 -24 -200 -51 -221 -65 -12 -9
-28 -16 -35 -16 -13 0 -74 -39 -113 -71 -14 -12 -41 -32 -62 -45 -34 -22 -56
-44 -43 -44 7 0 108 70 120 84 17 19 94 66 108 66 7 0 18 5 25 12 7 7 12 8 12
2 0 -5 4 -3 9 5 5 8 43 23 83 33 40 11 91 23 113 29 90 23 138 22 189 -2 57
-27 124 -93 132 -131 4 -16 11 -28 16 -28 6 0 8 -15 6 -34 -2 -19 0 -32 4 -30
12 7 10 74 -2 74 -5 0 -10 10 -10 22 0 28 -111 138 -139 138 -11 0 -23 5 -26
10 -6 10 -107 14 -117 5z"/>
<path d="M1470 3216 c0 -2 9 -6 20 -9 11 -3 18 -1 14 4 -5 9 -34 13 -34 5z"/>
<path d="M1716 3203 c-13 -14 -5 -41 17 -52 l22 -12 -22 5 c-25 4 -26 1 -13
-29 7 -17 9 -17 9 -2 1 16 13 22 35 18 5 -1 4 4 -3 13 -8 10 -9 16 -1 21 5 3
13 -1 16 -9 6 -15 4 -24 -14 -56 -27 -47 -32 -60 -22 -60 6 0 13 8 16 18 3 9
13 32 22 50 9 19 17 41 18 49 4 27 7 28 162 18 78 -4 110 -10 130 -24 15 -11
52 -22 82 -24 30 -3 71 -9 90 -14 l35 -8 -40 -6 -40 -6 38 -2 c20 0 37 -5 37
-11 0 -5 9 -10 21 -10 21 0 52 -24 43 -33 -3 -3 -13 -3 -22 0 -10 2 -2 -8 17
-25 25 -21 30 -31 20 -35 -8 -3 -4 -4 9 -4 28 2 28 3 -3 32 -15 13 -22 26 -17
29 12 7 62 -42 62 -60 0 -8 -6 -14 -12 -15 -7 0 -3 -4 9 -9 34 -14 42 -67 19
-121 -4 -10 -2 -16 6 -16 9 0 14 18 16 52 2 40 -3 64 -23 103 -27 54 -88 112
-117 112 -9 0 -20 5 -23 10 -9 15 16 12 61 -9 83 -38 132 -134 120 -238 -3
-30 -11 -64 -17 -74 -12 -24 -3 -59 17 -59 19 0 18 -17 -3 -30 -17 -11 -17
-11 0 -6 10 3 21 6 23 6 2 0 4 9 4 20 0 11 -6 20 -14 20 -24 0 -25 12 -10 70
20 71 14 144 -16 206 -14 27 -23 57 -22 66 2 13 -3 18 -20 17 -13 0 -43 7 -68
16 -65 25 -149 44 -193 45 -22 0 -49 9 -65 20 -21 15 -47 21 -112 24 -47 2
-95 4 -108 5 -15 1 -21 5 -16 14 6 10 4 10 -7 0 -7 -7 -23 -13 -35 -13 -12 0
-25 -6 -27 -12 -4 -9 -8 -10 -14 -2 -12 16 -49 34 -57 27z m35 -28 c-1 -15
-24 -12 -29 3 -3 9 2 13 12 10 10 -1 17 -7 17 -13z m679 -115 c0 -5 -2 -10 -4
-10 -3 0 -8 5 -11 10 -3 6 -1 10 4 10 6 0 11 -4 11 -10z"/>
<path d="M1358 3179 c-6 -4 -18 -5 -27 -2 -13 4 -13 3 -2 -5 11 -8 10 -12 -7
-21 -11 -6 -30 -11 -41 -11 -12 0 -21 -4 -21 -9 0 -13 67 7 90 26 21 19 145
19 185 1 16 -7 28 -7 41 2 18 11 18 11 1 6 -10 -3 -26 -2 -35 3 -21 11 -169
19 -184 10z"/>
<path d="M1823 3153 c9 -2 15 -9 12 -14 -4 -5 2 -6 12 -2 10 3 -2 -13 -27 -36
-25 -23 -36 -38 -25 -32 11 5 32 21 46 34 14 14 34 27 45 30 16 4 16 5 -3 6
-13 0 -23 5 -23 9 0 4 -12 8 -27 9 -16 0 -20 -1 -10 -4z"/>
<path d="M1448 3139 c36 -11 45 -30 10 -22 -19 4 -20 3 -8 -6 24 -17 43 -13
37 9 -3 10 0 21 6 23 7 2 -9 4 -33 4 -44 1 -44 1 -12 -8z"/>
<path d="M2185 3085 c17 -14 35 -23 40 -21 6 2 23 -10 37 -28 110 -129 148
-200 148 -278 0 -27 5 -59 11 -71 21 -40 70 -85 88 -80 21 5 41 -34 41 -80 0
-18 5 -39 10 -47 12 -19 1 87 -11 112 -13 25 9 33 32 12 16 -14 19 -29 18 -68
-1 -32 4 -62 14 -80 11 -21 13 -35 6 -47 -13 -25 -12 -28 16 -39 22 -8 24 -14
21 -50 -3 -32 1 -47 20 -69 21 -25 22 -30 8 -35 -21 -8 -37 2 -30 20 3 8 1 14
-4 14 -6 0 -10 -4 -10 -9 0 -5 -3 -17 -7 -27 -5 -13 -3 -15 7 -9 8 5 18 1 27
-10 13 -18 13 -18 14 1 0 18 1 18 9 -1 5 -11 9 -15 9 -8 1 6 3 18 7 26 3 8 -6
27 -19 43 -17 20 -23 39 -21 63 3 45 -4 61 -27 61 -22 0 -23 4 -8 31 8 16 6
28 -10 54 -11 18 -18 42 -16 52 9 45 14 95 8 90 -3 -4 -19 3 -35 14 -23 16
-26 24 -17 35 6 7 9 19 6 26 -4 8 -6 7 -6 -4 -1 -10 -6 -18 -12 -18 -6 0 -8
-9 -4 -20 5 -17 2 -20 -23 -20 -22 0 -39 11 -66 40 -33 36 -36 45 -36 98 0 42
-7 73 -26 112 -39 80 -132 200 -158 204 -7 1 -25 9 -39 19 -39 25 -46 20 -12
-8z"/>
<path d="M2210 2978 c0 -24 40 -78 58 -78 5 0 -3 14 -19 31 -16 17 -29 39 -29
48 0 11 6 7 19 -12 13 -21 20 -25 24 -14 5 14 -25 47 -43 47 -6 0 -10 -10 -10
-22z"/>
<path d="M870 2950 c-19 -11 -66 -43 -105 -72 -56 -43 -77 -67 -107 -123 -21
-38 -38 -80 -38 -91 0 -12 -6 -34 -14 -49 -9 -16 -12 -42 -9 -64 3 -24 2 -32
-5 -22 -6 9 -12 10 -16 3 -4 -6 1 -15 11 -20 13 -6 25 -2 43 16 23 23 24 24 3
13 -21 -10 -23 -9 -24 11 -2 37 2 62 12 73 5 5 9 19 9 32 0 12 14 46 30 75 17
29 34 60 38 68 11 20 138 116 180 137 17 8 32 19 32 24 0 11 2 12 -40 -11z"/>
<path d="M2280 2936 c8 -10 13 -31 12 -46 -2 -16 1 -31 7 -35 6 -3 11 -14 11
-24 0 -9 8 -35 19 -57 10 -21 21 -56 25 -76 4 -21 11 -38 17 -38 6 0 6 7 -1
19 -5 11 -10 30 -10 43 0 13 -9 38 -20 56 -24 39 -25 49 -5 32 8 -7 15 -9 15
-4 1 5 6 0 13 -11 7 -11 19 -21 27 -23 10 -3 8 4 -7 20 -13 14 -23 32 -23 41
0 9 -5 17 -11 17 -6 0 -8 9 -4 23 4 16 4 18 -3 8 -8 -11 -12 -9 -18 10 -4 13
-7 29 -5 34 1 6 -1 7 -5 2 -4 -4 -17 1 -28 10 -20 17 -20 17 -6 -1z m50 -100
c-1 -19 -29 38 -29 59 0 14 4 10 14 -14 8 -18 15 -38 15 -45z m17 -18 c-3 -8
-6 -5 -6 6 -1 11 2 17 5 13 3 -3 4 -12 1 -19z"/>
<path d="M847 2880 c-9 -14 -20 -19 -28 -15 -7 5 -10 4 -5 -3 8 -13 -23 -31
-44 -25 -12 4 -13 3 -1 -5 11 -8 9 -11 -8 -17 -11 -3 -21 -11 -21 -16 0 -11
41 9 52 25 5 8 14 7 29 -2 11 -7 23 -11 26 -8 3 3 -2 8 -11 12 -15 6 -14 10
10 35 15 16 25 31 22 35 -3 3 -13 -4 -21 -16z"/>
<path d="M701 2748 c0 -9 -12 -38 -26 -64 -14 -26 -25 -53 -25 -61 0 -8 -4
-12 -9 -8 -6 3 -8 -6 -5 -21 3 -16 1 -23 -6 -19 -5 3 -10 -1 -10 -11 0 -27 27
1 34 36 3 20 12 30 23 30 14 0 15 2 4 9 -11 7 -10 16 9 48 12 22 20 49 17 59
-4 16 -5 16 -6 2z"/>
<path d="M558 2642 c6 -62 12 -67 12 -9 0 25 -4 48 -9 51 -5 3 -6 -16 -3 -42z"/>
<path d="M362 2620 c0 -19 2 -27 5 -17 2 9 2 25 0 35 -3 9 -5 1 -5 -18z"/>
<path d="M393 2603 c-19 -7 -16 -38 7 -64 l20 -24 -17 32 c-10 17 -15 35 -11
38 6 6 101 -84 112 -107 3 -7 4 -3 2 10 -3 14 1 22 9 22 8 0 12 -8 9 -22 -2
-14 -1 -17 3 -8 3 8 17 34 30 58 13 23 19 42 14 42 -5 0 -15 -14 -23 -30 -9
-22 -18 -30 -30 -26 -10 2 -18 -1 -18 -7 -1 -7 -22 11 -48 39 -26 28 -53 49
-59 47z"/>
<path d="M2440 2594 c-8 -11 -11 -16 -6 -12 5 4 24 -9 43 -29 25 -25 38 -32
46 -24 7 7 7 17 -1 33 l-12 23 6 -22 c3 -13 1 -23 -4 -23 -10 0 -48 42 -54 60
-2 8 -8 7 -18 -6z"/>
<path d="M2633 2545 c0 -38 2 -53 4 -32 2 20 2 52 0 70 -2 17 -4 1 -4 -38z"/>
<path d="M1950 2561 c4 -15 13 -38 19 -49 6 -12 7 -23 2 -26 -5 -3 -11 1 -15
9 -3 8 -10 15 -16 15 -6 0 -6 -7 2 -20 13 -20 39 -36 37 -22 -4 24 4 20 26
-12 16 -23 25 -51 25 -74 0 -47 19 -89 42 -96 10 -2 18 0 18 5 0 5 -6 9 -14 9
-31 0 -50 123 -18 126 6 1 17 2 23 3 5 0 7 6 4 11 -4 7 -12 7 -25 0 -15 -8
-23 -5 -39 18 -12 15 -25 32 -31 39 -5 6 -15 30 -22 52 -14 46 -31 57 -18 12z"/>
<path d="M1214 2545 c-9 -19 -21 -35 -28 -35 -6 0 -17 -9 -24 -20 -7 -13 -8
-20 -2 -20 6 0 13 7 16 15 4 8 12 15 19 15 7 0 15 5 17 12 3 9 6 9 12 0 4 -7
-3 -22 -18 -37 -17 -17 -20 -25 -11 -25 20 0 47 54 34 67 -12 12 5 53 20 53 5
0 17 -20 27 -44 10 -24 22 -43 25 -40 4 2 -3 24 -14 49 -26 55 -50 59 -73 10z"/>
<path d="M2575 2570 c-3 -5 -1 -10 4 -10 6 0 11 5 11 10 0 6 -2 10 -4 10 -3 0
-8 -4 -11 -10z"/>
<path d="M391 2504 c36 -43 133 -92 145 -73 3 5 -5 9 -18 9 -13 0 -47 18 -76
40 -55 42 -73 51 -51 24z"/>
<path d="M1066 2498 c-7 -31 -45 -55 -57 -36 -6 9 -9 9 -9 1 0 -6 5 -15 10
-18 6 -4 7 -11 4 -17 -4 -5 -9 -6 -13 -2 -9 13 -49 34 -64 34 -7 0 -23 -10
-34 -22 -11 -13 -29 -29 -39 -36 -12 -8 -13 -11 -4 -9 8 2 19 -6 25 -17 7 -14
21 -21 50 -22 37 -3 38 -2 9 5 -62 16 -67 28 -29 69 23 25 26 26 49 12 34 -21
33 -34 -4 -41 -17 -4 -34 -10 -38 -14 -4 -4 9 -4 28 0 19 4 49 8 65 7 22 0 25
2 12 7 -17 6 -15 11 17 50 20 24 36 49 36 57 0 21 -7 17 -14 -8z"/>
<path d="M2049 2492 c6 -2 11 -11 11 -20 1 -15 2 -15 11 1 16 28 28 20 35 -24
5 -29 13 -43 25 -46 11 -3 19 -9 19 -12 0 -4 27 -35 59 -69 54 -55 57 -61 38
-65 -12 -2 1 -5 29 -6 45 -1 52 -4 63 -28 7 -16 16 -48 19 -73 11 -80 6 -363
-7 -415 -19 -78 -26 -240 -11 -276 10 -23 10 -33 1 -42 -6 -6 -11 -21 -11 -34
0 -12 -4 -42 -10 -65 -5 -24 -15 -71 -22 -105 -7 -35 -16 -63 -20 -63 -4 0 -8
-12 -7 -27 0 -16 3 -21 6 -13 2 8 8 24 13 35 17 41 22 61 31 120 5 33 14 80
20 105 6 25 10 57 9 73 -6 112 -3 231 10 282 9 39 14 115 13 220 0 202 -2 231
-21 278 -11 29 -20 37 -39 37 -17 0 -46 22 -98 75 -40 41 -78 75 -84 75 -6 0
-11 10 -11 23 0 52 -10 65 -47 64 -20 -1 -31 -3 -24 -5z"/>
<path d="M575 2462 c-5 -4 -10 -12 -10 -19 0 -12 -72 -73 -86 -73 -5 0 -9 -7
-9 -16 0 -13 -9 -15 -43 -13 l-44 4 -2 -42 c-2 -43 15 -83 35 -83 6 0 16 -10
22 -22 7 -15 11 -17 11 -8 1 8 -12 28 -29 43 -22 21 -30 38 -30 63 0 34 0 34
45 34 33 0 45 4 45 15 0 8 4 15 8 15 18 0 92 65 92 81 0 10 6 20 13 22 6 3 8
6 2 6 -5 0 -14 -3 -20 -7z"/>
<path d="M1256 2456 c4 -9 -5 -20 -24 -30 -17 -9 -39 -27 -50 -41 -17 -21 -28
-25 -75 -25 -37 0 -59 -5 -67 -15 -11 -14 -10 -14 14 -5 15 5 46 9 69 9 l42
-1 -40 -10 c-22 -5 -65 -12 -95 -15 -30 -3 -59 -9 -65 -13 -5 -5 -27 -11 -48
-15 -24 -5 -52 -20 -73 -41 -18 -19 -29 -34 -24 -34 5 0 23 13 40 30 16 16 46
32 65 36 19 3 38 10 41 15 7 12 91 11 115 -1 13 -7 19 -7 19 0 0 5 -6 10 -12
10 -28 1 20 19 56 22 22 1 35 7 32 13 -5 15 1 24 43 58 28 23 36 26 49 15 13
-11 14 -11 7 2 -5 8 -8 23 -7 33 2 9 -1 17 -7 17 -6 0 -8 -6 -5 -14z"/>
<path d="M1340 2440 c-14 -16 -43 -41 -65 -56 -22 -15 -45 -35 -52 -44 -7 -10
-26 -20 -44 -24 -19 -3 -33 -13 -36 -25 -4 -18 -13 -19 -91 -17 -72 3 -79 2
-42 -5 25 -5 62 -8 83 -6 31 3 37 1 32 -12 -3 -10 1 -8 13 5 13 15 23 19 33
13 18 -9 112 16 149 40 67 43 120 64 134 52 8 -7 17 -8 20 -3 3 6 -5 13 -19
16 -23 6 -125 -35 -160 -64 -26 -21 -107 -40 -128 -28 -19 10 -19 11 -3 20 10
6 26 8 36 5 11 -3 19 -2 18 2 -2 18 4 22 17 11 12 -10 24 -6 65 19 28 17 55
31 61 31 19 0 3 25 -17 27 -19 3 -19 3 0 -5 18 -8 18 -9 2 -15 -10 -4 -23 -4
-28 0 -6 3 -8 1 -4 -5 3 -6 -3 -13 -14 -17 -11 -3 -20 -10 -20 -15 0 -12 -25
-19 -39 -10 -9 5 -1 14 24 30 20 12 48 34 61 49 13 14 24 21 24 15 0 -7 9 -14
20 -17 11 -3 20 -2 20 3 0 4 -10 10 -22 13 -21 6 -21 7 -3 27 10 11 14 20 9
19 -5 0 -20 -13 -34 -29z"/>
<path d="M1693 2458 c-13 -6 -23 -15 -23 -20 0 -7 55 15 69 28 9 8 -25 2 -46
-8z"/>
<path d="M1636 2405 c-10 -8 -22 -12 -27 -10 -4 3 -10 1 -14 -5 -3 -5 -17 -10
-31 -10 -24 0 -84 -25 -84 -35 0 -3 15 2 33 10 31 14 101 30 123 28 6 0 16 8
23 18 13 22 3 24 -23 4z"/>
<path d="M381 2371 c-10 -7 -7 -9 12 -8 14 1 23 5 20 10 -6 9 -15 9 -32 -2z"/>
<path d="M2607 2320 c-3 -12 -14 -20 -25 -20 -25 0 -52 -26 -51 -48 0 -12 3
-11 9 6 5 12 13 22 18 22 9 0 27 -32 37 -67 4 -13 11 -23 16 -23 5 0 13 -10
18 -22 7 -18 3 -28 -16 -45 -13 -13 -29 -23 -36 -23 -8 0 -8 -3 1 -12 9 -9 19
-5 42 22 l29 35 1 -39 c0 -26 -6 -43 -17 -52 -16 -12 -16 -12 5 -7 18 4 22 12
22 43 0 38 -9 61 -44 112 -10 16 -16 35 -12 43 3 9 2 13 -4 10 -5 -3 -14 4
-20 15 -10 18 -8 20 27 21 30 0 34 2 18 9 -11 5 -14 9 -7 9 7 1 11 5 8 10 -4
5 0 12 6 14 8 4 7 6 -3 6 -9 1 -19 -8 -22 -19z"/>
<path d="M1395 2304 c-59 -18 -68 -22 -35 -18 25 4 53 10 62 15 9 5 26 9 37 9
12 0 21 5 21 10 0 6 -1 10 -2 9 -2 0 -39 -12 -83 -25z"/>
<path d="M424 2312 c-26 -4 -22 -37 4 -47 14 -5 15 -4 5 6 -17 17 -16 29 0 29
21 0 48 -65 34 -80 -9 -9 -9 -11 -1 -7 25 14 39 -61 23 -121 -9 -33 -9 -53 0
-85 7 -23 22 -73 33 -112 11 -38 24 -78 29 -87 5 -10 9 -25 9 -33 0 -9 9 -35
20 -57 26 -54 27 -88 2 -81 -12 3 -22 -4 -29 -19 -16 -33 -30 -170 -21 -204 4
-16 10 -47 12 -69 2 -22 9 -53 16 -70 6 -16 16 -41 22 -55 13 -34 51 -90 61
-90 5 0 15 -7 23 -15 10 -9 34 -15 65 -15 l49 0 0 -75 c0 -74 4 -97 36 -225
26 -100 29 -173 9 -204 -17 -25 -55 -36 -55 -16 0 18 -25 5 -42 -22 -10 -16
-25 -28 -33 -28 -19 0 -21 -60 -3 -78 16 -16 43 -15 58 3 7 8 17 12 22 9 6 -4
5 -10 -3 -15 -10 -6 -3 -9 21 -9 31 -1 32 -2 13 -10 -13 -5 -23 -12 -23 -15 0
-4 5 -3 11 1 7 4 10 1 7 -7 -3 -8 -13 -13 -22 -13 -9 1 -16 -2 -16 -7 0 -22
43 -5 53 21 4 10 6 8 6 -7 1 -12 -6 -26 -15 -31 -19 -11 -94 5 -94 20 0 5 -15
23 -32 40 -21 19 -29 32 -20 35 17 6 15 20 -3 20 -22 0 -18 -40 5 -55 12 -7
17 -18 13 -28 -4 -10 1 -17 16 -21 11 -3 21 -9 21 -14 0 -5 16 -9 35 -9 19 0
35 -5 35 -11 0 -7 -10 -9 -26 -5 -18 5 -32 2 -44 -9 -12 -11 -20 -13 -25 -6
-3 6 -1 11 4 11 6 0 11 4 11 10 0 22 -31 -5 -37 -32 -4 -18 -10 -27 -19 -24
-14 5 -9 -19 9 -42 6 -8 5 -17 -3 -28 -11 -12 -10 -18 4 -32 15 -15 16 -15 11
-1 -9 25 14 33 36 13 22 -20 17 -33 -6 -14 -8 7 -15 8 -15 3 0 -6 18 -18 40
-28 22 -10 40 -24 40 -30 0 -7 7 -15 15 -19 8 -3 15 -1 15 4 0 6 -5 10 -11 10
-6 0 -8 7 -5 17 4 10 4 14 0 11 -14 -15 -44 13 -44 41 0 15 -9 36 -20 46 -20
18 -18 37 3 34 7 -1 25 3 40 9 37 15 34 16 50 -15 12 -23 12 -30 -2 -54 -14
-26 -14 -29 4 -50 11 -12 15 -19 8 -16 -6 4 -15 2 -19 -4 -4 -8 -3 -9 4 -5 12
7 17 -10 14 -47 -1 -10 2 -15 8 -12 5 3 9 22 8 42 -1 20 4 39 10 41 17 5 15
37 -3 52 -9 7 -13 15 -11 18 3 2 1 13 -4 22 -7 12 -5 27 5 47 9 19 13 47 10
79 -2 27 -4 54 -5 61 0 7 -7 10 -15 6 -17 -6 -65 42 -65 65 0 19 -25 -7 -34
-36 -9 -28 2 -29 12 -1 7 18 10 19 21 6 10 -13 9 -18 -9 -27 -12 -6 -28 -9
-36 -6 -19 7 -19 66 0 66 7 0 21 11 30 25 13 20 22 24 44 19 15 -4 32 -11 39
-16 7 -6 18 -8 25 -5 8 4 7 6 -4 6 -9 1 -20 6 -23 11 -4 7 2 9 19 4 21 -5 26
-3 26 12 0 16 -2 16 -10 4 -5 -8 -12 -11 -16 -7 -4 3 -1 13 5 21 17 21 9 118
-19 231 -13 50 -25 134 -27 188 l-5 97 -47 0 c-96 0 -155 78 -189 250 -13 63
-15 103 -9 155 10 90 23 116 54 110 23 -4 24 -2 17 28 -3 18 -15 49 -25 69
-11 21 -19 48 -19 61 0 12 -4 27 -8 33 -5 5 -14 29 -21 54 -8 25 -17 56 -21
70 -32 105 -33 109 -21 152 6 24 9 54 8 68 -5 34 -28 102 -39 117 -5 7 -7 16
-4 22 7 11 -12 18 -40 13z m396 -1996 c-6 -16 -15 -24 -21 -20 -8 4 -8 9 0 17
6 6 11 21 11 32 0 12 3 25 8 29 12 13 14 -28 2 -58z m-29 1 c-6 -6 -14 -7 -18
-2 -5 4 -2 10 5 12 6 3 13 12 13 21 1 14 2 14 6 -2 3 -10 0 -23 -6 -29z m-33
-2 c3 -16 1 -18 -9 -7 -18 17 -34 15 -20 -2 8 -9 8 -16 2 -20 -16 -10 -32 29
-18 43 17 17 41 9 45 -14z m-75 -12 c-5 -11 -3 -14 6 -8 10 6 11 3 1 -15 -10
-18 -8 -25 9 -44 26 -28 28 -45 2 -22 -11 10 -24 15 -30 11 -7 -3 -8 0 -5 10
4 8 1 22 -6 30 -9 10 -9 15 -1 15 6 0 11 12 11 26 0 14 4 23 10 19 5 -3 6 -13
3 -22z m150 -124 c-14 -14 -35 14 -27 35 6 15 8 14 21 -4 10 -14 12 -25 6 -31z"/>
<path d="M2544 2192 c-6 -10 -11 -29 -10 -42 1 -14 -4 -38 -11 -53 -8 -15 -11
-32 -8 -36 3 -5 0 -22 -6 -38 -6 -15 -15 -44 -20 -63 -22 -95 -32 -126 -59
-180 -41 -81 -60 -141 -54 -166 3 -12 1 -25 -5 -28 -13 -8 -15 -63 -2 -70 4
-3 6 5 4 18 -6 28 15 72 27 60 5 -5 10 -22 13 -39 l4 -30 2 32 c0 21 -6 39
-20 52 l-22 20 24 58 c12 32 31 73 41 91 10 19 26 59 34 90 9 32 20 73 26 92
5 19 12 45 15 57 3 12 14 30 24 39 10 9 19 24 18 33 0 11 -4 9 -11 -6 -6 -13
-15 -23 -19 -23 -12 0 10 57 27 71 15 12 19 30 7 28 -22 -4 -24 3 -9 26 9 14
13 25 9 25 -5 0 -13 -8 -19 -18z"/>
<path d="M2578 2189 c-3 -8 4 -22 17 -31 17 -13 22 -13 22 -3 0 8 -4 12 -9 9
-4 -3 -12 5 -16 17 -6 16 -10 18 -14 8z"/>
<path d="M440 2135 c0 -2 7 -8 15 -15 12 -10 15 -10 15 2 0 8 -7 15 -15 15 -8
0 -15 -1 -15 -2z"/>
<path d="M815 2114 c-4 -16 -13 -51 -20 -79 -8 -27 -16 -80 -20 -117 -3 -37
-9 -77 -14 -89 -4 -13 -2 -45 6 -78 17 -75 18 -275 1 -266 -7 4 -4 -1 7 -10
16 -13 21 -34 28 -118 11 -136 12 -196 3 -232 -4 -16 -4 -27 -1 -23 6 5 12 28
14 51 1 4 6 7 12 7 5 0 7 -4 4 -10 -3 -5 -1 -10 4 -10 13 0 14 17 2 24 -13 9
-35 200 -50 441 -5 77 -13 154 -18 170 -6 17 -6 41 -1 55 4 14 12 61 17 105 5
44 16 107 25 140 8 32 13 61 11 63 -2 3 -7 -9 -10 -24z"/>
<path d="M2490 2119 c-7 -11 -9 -24 -5 -27 3 -3 8 4 12 17 4 17 8 19 14 9 6
-9 9 -9 9 -1 0 22 -19 24 -30 2z"/>
<path d="M1253 1866 c-3 -6 -3 -8 1 -5 4 4 22 3 41 -1 19 -4 33 -4 30 0 -8 13
-65 17 -72 6z"/>
<path d="M1065 1839 c-65 -6 -181 -37 -143 -38 25 -1 28 -24 5 -48 -11 -13
-16 -23 -10 -23 6 0 18 11 27 25 19 29 41 32 55 8 10 -17 10 -17 11 -1 0 23
-33 41 -48 26 -9 -9 -12 -9 -12 0 0 27 53 41 160 42 36 0 88 0 115 0 62 1 171
-26 207 -51 28 -20 38 -23 38 -11 0 29 -157 73 -255 71 -35 -1 -67 0 -71 2 -5
3 -40 2 -79 -2z"/>
<path d="M1920 1808 l-35 -6 37 1 c20 1 39 -1 42 -4 3 -2 36 -1 73 5 37 5 103
6 146 2 l78 -8 25 -50 c17 -34 25 -62 22 -84 -2 -18 0 -30 4 -28 15 10 8 62
-16 117 l-25 55 -73 7 c-81 7 -224 4 -278 -7z"/>
<path d="M1888 1777 c-16 -6 -28 -17 -28 -24 0 -7 -8 -13 -17 -14 -13 0 -14
-2 -4 -6 8 -3 19 1 25 9 6 8 21 18 34 22 12 4 22 12 22 17 0 5 -1 9 -2 8 -2
-1 -15 -6 -30 -12z"/>
<path d="M1484 1767 c3 -10 6 -23 6 -28 0 -5 5 -9 10 -9 14 0 12 13 -6 36 -14
17 -15 17 -10 1z"/>
<path d="M1060 1746 c-61 -13 -100 -31 -100 -47 0 -6 13 -1 29 10 33 24 52 26
69 9 9 -9 12 -9 12 0 0 7 -6 13 -12 13 -7 1 3 4 23 8 55 11 216 -7 258 -30 19
-10 42 -19 49 -19 24 0 72 -30 72 -45 0 -17 -22 -19 -48 -6 -31 16 -124 41
-151 40 -14 0 -35 -4 -46 -9 -14 -6 -7 -7 22 -3 61 8 181 -31 193 -63 11 -29
24 -32 15 -4 -5 14 -2 20 9 20 9 0 17 5 17 10 3 20 4 25 14 40 7 13 6 13 -7 2
-9 -7 -19 -9 -22 -4 -13 21 -164 71 -231 77 -38 4 -79 8 -90 10 -11 1 -45 -3
-75 -9z"/>
<path d="M2035 1714 c-27 -7 -58 -18 -67 -24 -10 -5 -25 -10 -34 -10 -8 0 -22
-7 -30 -15 -9 -8 -11 -15 -5 -15 6 0 11 -5 11 -11 0 -5 -5 -7 -12 -3 -7 5 -8
3 -4 -5 5 -7 14 -10 22 -7 8 3 14 1 14 -4 0 -5 -10 -11 -22 -13 l-23 -4 23 -2
c28 -1 42 28 18 41 -21 12 -11 28 18 28 12 0 27 5 32 10 15 15 121 41 139 34
8 -3 15 -13 15 -21 0 -8 8 -13 17 -11 10 2 22 -7 29 -21 7 -14 25 -31 41 -39
27 -14 27 -14 -6 17 -25 23 -31 34 -23 44 9 10 5 13 -18 11 -19 -1 -30 3 -30
11 0 11 -34 27 -50 24 -3 -1 -27 -7 -55 -15z"/>
<path d="M1963 1653 c-29 -11 -9 -20 50 -20 60 0 61 0 17 7 -38 7 -34 7 25 5
45 -2 61 0 45 5 -28 9 -118 11 -137 3z"/>
<path d="M1281 1643 c-1 -8 -17 -12 -43 -12 -24 0 -70 -9 -102 -20 -33 -12
-69 -21 -80 -22 -18 -1 -18 -2 4 -8 15 -4 33 -2 45 5 51 30 164 48 193 30 7
-4 10 -16 7 -26 -5 -14 -1 -16 21 -12 20 4 25 1 22 -9 -3 -8 -12 -13 -19 -11
-11 3 -11 1 -2 -8 14 -15 29 -7 36 20 5 18 -7 26 -35 21 -8 -1 -12 15 -9 32 0
4 -5 7 -13 7 -8 0 -17 6 -19 13 -4 9 -6 9 -6 0z"/>
<path d="M2157 1629 c9 -9 8 -15 -3 -26 -11 -12 -21 -13 -46 -4 -17 6 -58 10
-92 9 l-61 -1 65 -6 c58 -5 65 -9 68 -28 3 -17 -4 -26 -25 -34 -19 -7 -29 -7
-31 0 -2 6 -8 8 -13 5 -6 -3 -21 2 -35 11 -34 22 -94 11 -94 -17 0 -16 -4 -19
-22 -14 -46 14 -58 15 -58 5 0 -5 5 -9 10 -9 6 0 10 -11 10 -24 0 -19 4 -23
19 -19 10 3 30 0 42 -7 23 -11 23 -10 5 4 -11 9 -28 16 -38 16 -10 0 -18 7
-18 16 0 11 5 14 18 9 9 -3 31 -9 47 -12 17 -3 35 -10 42 -15 9 -7 9 -4 0 16
-7 14 -20 26 -29 26 -25 0 -23 20 2 22 11 0 25 1 32 2 7 1 15 -10 18 -23 5
-22 50 -51 50 -32 0 5 -9 11 -20 14 -11 3 -20 10 -20 16 0 13 17 15 25 2 7
-12 74 -6 88 8 7 7 23 2 52 -15 23 -13 49 -22 58 -19 23 9 9 42 -24 55 -33 14
-36 22 -14 40 13 11 20 9 42 -11 25 -23 25 -23 14 -2 -6 12 -20 25 -31 28 -11
3 -20 11 -20 16 0 5 -5 9 -12 9 -9 0 -9 -3 -1 -11z m21 -81 c12 -6 22 -17 22
-25 0 -20 2 -21 -99 43 -1 2 0 8 4 14 5 8 13 7 28 -5 12 -8 32 -20 45 -27z
m-255 -35 c-7 -2 -19 -2 -25 0 -7 3 -2 5 12 5 14 0 19 -2 13 -5z"/>
<path d="M666 1593 c22 -24 34 -47 34 -65 0 -35 -8 -35 -35 -3 -13 16 -32 26
-55 27 -30 3 -35 0 -38 -20 -3 -22 13 -45 36 -50 8 -1 11 2 7 8 -9 14 17 12
37 -4 10 -7 14 -17 9 -22 -4 -5 -5 -20 0 -34 l7 -25 1 28 c1 30 12 35 30 13 9
-11 8 -17 -4 -29 -8 -9 -11 -18 -6 -21 5 -3 16 5 24 17 14 22 14 25 -14 48
-16 13 -29 27 -29 30 0 9 51 2 62 -9 6 -6 16 -66 24 -134 7 -69 18 -135 24
-149 10 -22 10 -22 4 6 -3 17 -12 85 -19 153 -15 131 -18 142 -41 142 -9 0
-14 10 -14 28 0 28 -21 67 -48 90 -31 25 -29 11 4 -25z m-9 -72 c6 -9 9 -20 6
-24 -3 -5 -8 -5 -12 -1 -9 13 -54 37 -47 25 4 -5 2 -12 -3 -15 -12 -8 -24 11
-18 28 7 18 58 8 74 -13z"/>
<path d="M1213 1598 c1 -8 -7 -12 -20 -10 -24 3 -68 -16 -59 -25 3 -3 12 0 21
7 20 16 45 6 45 -20 0 -11 7 -20 15 -20 9 0 18 -7 21 -15 5 -11 11 -12 24 -5
13 7 21 7 26 -1 12 -20 -13 -31 -60 -28 -26 3 -47 0 -48 -6 0 -5 -1 -17 -2
-25 -1 -8 -12 -17 -26 -21 -23 -6 -23 -7 -3 -8 12 -1 25 4 28 9 3 6 35 10 71
10 64 0 144 18 144 32 0 5 7 8 15 8 9 0 25 8 35 18 19 17 18 18 -18 14 -20 -2
-44 -6 -52 -9 -8 -4 -28 -8 -44 -10 -26 -4 -28 -3 -17 11 8 9 23 16 34 16 33
0 127 33 127 44 0 6 4 4 10 -4 5 -9 5 -19 -2 -27 -7 -9 -7 -13 0 -13 15 0 24
31 12 45 -9 10 -19 9 -52 -7 -22 -11 -57 -22 -77 -25 -20 -3 -41 -10 -47 -15
-8 -5 -17 -3 -27 6 -10 10 -18 11 -24 5 -14 -14 -53 10 -53 33 0 14 9 18 38
19 37 1 37 1 7 9 l-30 7 35 5 c34 5 34 5 -7 6 -30 2 -42 -2 -40 -10z m162
-123 c-38 -18 -67 -24 -122 -24 -40 -1 -73 3 -73 8 0 4 33 11 73 14 86 8 104
11 113 20 4 4 19 7 33 7 22 -1 17 -5 -24 -25z"/>
<path d="M1017 1593 c-4 -3 -7 -15 -7 -25 0 -17 21 -24 59 -18 18 2 74 -20 86
-35 6 -7 18 -9 30 -4 18 7 18 8 2 8 -11 1 -15 6 -11 13 4 6 3 8 -4 4 -6 -3
-29 1 -50 9 -22 9 -46 16 -53 14 -38 -5 -50 1 -44 21 6 20 4 25 -8 13z"/>
<path d="M2025 1581 c3 -5 -5 -12 -17 -14 -20 -4 -19 -4 5 -6 18 -1 27 4 27
14 0 8 -5 15 -11 15 -5 0 -8 -4 -4 -9z"/>
<path d="M2296 1565 c-3 -9 -5 -71 -4 -138 l2 -122 5 135 c3 74 5 136 5 138
-1 2 -4 -4 -8 -13z"/>
<path d="M1238 1563 c12 -2 30 -2 40 0 9 3 -1 5 -23 4 -22 0 -30 -2 -17 -4z"/>
<path d="M2387 1513 c4 -28 -1 -58 -16 -97 -11 -31 -21 -78 -21 -104 0 -26
-14 -92 -31 -147 -17 -55 -35 -114 -40 -131 -5 -17 -9 -51 -9 -77 0 -25 -4
-49 -10 -52 -5 -3 -10 -18 -10 -33 0 -49 -59 -175 -114 -244 -59 -74 -58 -73
-77 -201 -10 -72 -10 -98 1 -139 13 -52 7 -67 -27 -68 -7 0 -13 -8 -13 -17 0
-9 -7 -24 -14 -32 -9 -10 -12 -22 -7 -30 6 -9 10 -6 15 13 3 14 11 26 17 26 6
0 7 5 3 11 -3 6 0 15 7 20 20 13 31 11 22 -3 -11 -18 -33 -80 -33 -96 0 -7 5
-10 10 -7 6 4 8 10 5 15 -3 5 -2 17 3 27 37 72 40 89 23 141 -12 36 -12 58 -1
140 14 109 18 119 70 182 59 72 120 201 120 255 0 18 5 37 10 40 6 3 10 27 10
52 0 26 5 63 11 82 6 20 15 52 21 71 5 19 13 44 17 55 22 55 31 96 31 141 0
27 9 74 20 104 21 59 25 106 11 129 -6 10 -8 1 -4 -26z"/>
<path d="M2124 1498 c4 -13 -3 -19 -29 -24 -18 -3 -44 -3 -57 1 -18 6 -20 5
-11 -5 7 -8 26 -10 50 -7 58 8 72 12 86 27 10 10 8 12 -7 6 -12 -4 -23 -1 -29
6 -6 9 -7 8 -3 -4z"/>
<path d="M1860 1241 c0 -6 7 -14 15 -17 8 -3 20 -25 27 -48 6 -22 16 -46 20
-53 6 -7 3 -18 -9 -30 -10 -10 -18 -27 -18 -38 0 -14 -9 -21 -32 -26 -17 -3
-35 -3 -40 2 -4 4 -26 -2 -48 -13 -22 -11 -53 -24 -70 -29 -40 -12 -124 6
-170 37 -20 13 -49 24 -66 24 -17 0 -39 5 -50 10 -11 6 -19 7 -19 2 0 -12 35
-22 78 -22 17 0 32 -5 32 -11 0 -18 87 -50 147 -53 45 -2 67 2 98 19 25 14 58
23 88 23 58 1 67 6 67 38 0 14 6 27 14 30 15 6 15 12 -1 64 -6 19 -14 48 -18
64 -3 15 -9 26 -12 22 -3 -3 -12 -1 -20 5 -9 9 -13 8 -13 0z"/>
<path d="M1800 1224 c0 -6 16 -26 35 -45 59 -58 46 -95 -40 -109 -32 -5 -65
-16 -74 -24 -14 -12 -54 -29 -73 -31 -3 0 -10 -3 -13 -7 -16 -15 52 4 90 26
22 13 59 26 83 29 85 11 97 59 32 129 -22 24 -40 38 -40 32z"/>
<path d="M750 1189 c0 -8 4 -19 9 -24 5 -6 11 -19 14 -30 4 -16 5 -15 6 5 0
14 -6 34 -14 44 -11 15 -15 16 -15 5z"/>
<path d="M1655 1084 c-55 -59 -64 -63 -82 -36 -15 25 -87 44 -143 39 l-45 -4
52 -1 c57 -2 96 -16 130 -45 22 -19 63 -16 63 5 0 6 6 6 15 -2 9 -8 15 -8 15
-2 0 6 -5 12 -11 14 -10 3 11 29 45 52 10 7 17 18 15 24 -2 6 -26 -14 -54 -44z"/>
<path d="M1205 1117 c-64 -38 -82 -53 -102 -84 -13 -19 -23 -49 -23 -66 0 -37
21 -102 38 -119 16 -16 15 -7 -4 31 -28 57 -29 103 -3 144 26 39 47 53 61 39
4 -4 -5 -21 -22 -37 -22 -21 -30 -37 -29 -59 2 -27 2 -28 6 -6 7 35 35 66 58
63 18 -3 18 -2 2 5 -25 10 -8 24 53 45 30 11 37 16 22 17 -13 0 -36 -7 -52
-15 -39 -20 -48 -2 -13 25 19 15 38 20 60 18 17 -2 29 0 27 4 -8 12 -56 9 -79
-5z"/>
<path d="M1193 954 c-12 -31 105 -104 177 -110 57 -5 110 -26 110 -43 1 -14 2
-14 10 0 10 17 54 15 77 -3 7 -5 22 -7 34 -3 13 5 19 3 15 -3 -4 -6 2 -8 15
-5 18 5 20 3 15 -18 -3 -13 -3 -18 0 -11 5 10 10 10 24 -3 10 -9 29 -15 42
-12 21 4 21 4 -4 6 -23 1 -48 24 -48 45 0 3 17 6 37 6 20 0 64 5 97 11 141 25
188 46 179 79 -7 25 -33 25 -64 2 -37 -29 -61 -32 -237 -38 -168 -6 -209 -2
-182 17 12 9 12 10 -3 5 -9 -3 -31 -3 -48 1 l-31 6 23 14 c17 10 18 12 4 7
-49 -18 -90 -13 -142 19 -29 17 -53 35 -53 39 0 15 -41 8 -47 -8z m37 -2 c0
-13 101 -67 127 -68 30 -1 116 -25 130 -37 16 -12 336 -2 384 13 20 6 42 17
49 25 17 21 42 19 38 -2 -4 -21 -74 -47 -173 -62 -95 -16 -197 -21 -215 -11
-8 5 -36 10 -62 13 -25 3 -55 10 -65 15 -10 5 -40 13 -68 17 -27 4 -63 14 -80
22 -47 25 -95 64 -89 74 7 11 24 12 24 1z"/>
<path d="M870 665 c0 -13 34 -71 51 -90 11 -11 29 -33 40 -48 12 -15 23 -26
26 -23 6 5 -37 68 -55 79 -6 4 -21 26 -32 48 -18 35 -30 48 -30 34z"/>
<path d="M767 630 c3 -14 9 -29 15 -35 8 -7 9 -5 5 8 -7 19 9 24 16 5 3 -8 6
-6 6 5 1 10 -6 17 -18 17 -11 0 -21 6 -24 13 -2 6 -2 1 0 -13z"/>
<path d="M1020 553 c0 -15 20 -28 68 -43 23 -7 42 -19 42 -26 0 -7 7 -17 17
-22 14 -8 13 -11 -10 -24 l-27 -14 73 -60 c89 -75 150 -114 177 -114 11 0 20
-4 20 -10 0 -6 26 -9 63 -8 l62 2 -57 3 c-32 2 -58 8 -58 13 0 6 -9 10 -20 10
-43 0 -239 148 -225 170 6 9 85 -36 85 -49 0 -10 60 -44 67 -38 2 3 -6 11 -19
18 -12 6 -32 20 -43 30 -11 11 -37 35 -57 54 -21 19 -38 39 -38 44 0 11 -52
41 -71 41 -7 0 -21 7 -31 17 -10 9 -18 11 -18 6z"/>
<path d="M768 543 c7 -3 16 -2 19 1 4 3 -2 6 -13 5 -11 0 -14 -3 -6 -6z"/>
<path d="M764 518 c-5 -7 -2 -9 7 -6 8 3 24 -1 34 -9 19 -15 19 -15 -3 -10
-12 3 -20 1 -16 -4 7 -12 44 -12 44 0 0 8 -43 41 -54 41 -3 0 -8 -5 -12 -12z"/>
<path d="M818 523 c7 -3 16 -2 19 1 4 3 -2 6 -13 5 -11 0 -14 -3 -6 -6z"/>
<path d="M607 413 c-11 -13 -17 -26 -15 -29 7 -7 40 34 37 44 -2 6 -12 -1 -22
-15z"/>
<path d="M737 413 c4 -11 3 -14 -5 -9 -17 10 -15 1 3 -14 13 -11 15 -8 15 14
0 14 -4 26 -10 26 -5 0 -6 -7 -3 -17z"/>
<path d="M608 366 c-31 -26 -36 -63 -11 -81 10 -8 13 -17 8 -25 -7 -11 -10 -9
-16 6 -7 17 -8 17 -10 2 -1 -10 -2 -24 -3 -30 -1 -7 4 -21 12 -30 19 -22 5
-24 -18 -3 -16 14 -17 14 -12 -10 2 -14 8 -28 13 -31 5 -3 6 2 3 10 -4 11 0
13 15 9 24 -6 26 0 11 28 -8 15 -7 23 5 35 19 19 19 38 0 54 -18 15 -19 32 -4
47 16 16 39 5 40 -21 1 -17 2 -18 6 -3 3 10 -1 24 -7 32 -6 8 -9 19 -5 25 10
16 3 12 -27 -14z"/>
<path d="M655 370 c3 -5 11 -10 16 -10 6 0 7 5 4 10 -3 6 -11 10 -16 10 -6 0
-7 -4 -4 -10z"/>
<path d="M2010 305 c0 -39 2 -44 14 -33 9 8 10 15 4 19 -6 4 -8 19 -6 33 3 14
1 26 -3 26 -5 0 -9 -20 -9 -45z"/>
<path d="M600 320 c0 -6 7 -10 15 -10 8 0 15 2 15 4 0 2 -7 6 -15 10 -8 3 -15
1 -15 -4z"/>
<path d="M551 287 c-6 -8 -8 -17 -3 -21 4 -4 -1 -12 -11 -17 -9 -6 -17 -21
-17 -33 0 -17 -7 -26 -26 -30 -31 -8 -54 -29 -54 -48 0 -7 12 -22 27 -32 14
-11 23 -14 19 -7 -6 9 0 12 20 9 20 -2 30 -9 31 -23 2 -11 0 -14 -3 -7 -3 6
-13 12 -22 11 -11 0 -12 -2 -4 -6 6 -2 12 -19 12 -36 0 -24 -3 -28 -10 -17 -8
13 -10 12 -10 -3 0 -11 5 -17 13 -14 6 2 20 0 30 -5 17 -9 18 -7 12 14 l-8 23
22 -25 c13 -16 19 -19 15 -8 -4 11 0 20 9 24 12 4 12 10 3 29 -7 16 -13 20
-18 12 -5 -8 -8 -6 -8 5 0 9 5 20 10 23 13 8 13 45 1 45 -6 0 -12 -4 -16 -9
-3 -6 -21 -4 -45 4 -22 8 -40 10 -40 6 0 -5 16 -12 35 -15 20 -4 33 -11 30
-16 -5 -8 -33 -5 -65 7 -8 4 -18 5 -22 5 -5 -1 -8 2 -8 7 0 14 41 41 62 41 12
0 18 8 18 25 0 13 6 28 13 32 8 4 17 20 21 36 7 30 4 34 -13 14z m21 -169 c-5
-7 -12 -26 -15 -43 -4 -29 -4 -28 -6 6 0 19 4 40 11 47 15 15 24 6 10 -10z
m-35 -90 c-3 -7 -5 -2 -5 12 0 14 2 19 5 13 2 -7 2 -19 0 -25z m48 23 c3 -5 1
-12 -5 -16 -5 -3 -10 1 -10 9 0 18 6 21 15 7z"/>
<path d="M627 243 c10 -3 9 -8 -2 -19 -8 -8 -12 -21 -9 -28 3 -8 1 -17 -5 -21
-18 -10 -12 -33 9 -40 11 -3 20 -14 20 -23 0 -13 -2 -14 -9 -4 -5 9 -8 2 -9
-19 l-1 -32 15 28 c8 15 12 37 8 47 -5 18 -3 18 16 8 14 -8 19 -17 15 -28 -5
-13 -3 -14 6 -5 9 9 7 17 -5 35 -9 12 -20 22 -24 21 -4 0 -14 3 -22 8 -9 5
-10 9 -3 9 7 0 10 7 7 15 -4 8 -1 21 5 29 11 14 5 27 -13 25 -6 0 -6 -3 1 -6z
m10 -89 c-3 -3 -12 -4 -19 -1 -8 3 -5 6 6 6 11 1 17 -2 13 -5z"/>
<path d="M2038 243 c7 -3 16 -2 19 1 4 3 -2 6 -13 5 -11 0 -14 -3 -6 -6z"/>
<path d="M525 160 c27 -12 43 -12 25 0 -8 5 -22 9 -30 9 -10 0 -8 -3 5 -9z"/>
<path d="M680 161 c0 -5 14 -19 30 -31 17 -12 30 -26 30 -32 0 -6 -10 -3 -22
8 -18 15 -20 16 -9 2 15 -20 8 -64 -15 -89 -12 -14 -12 -16 0 -16 8 0 14 3 14
6 -1 3 6 22 15 41 l16 35 1 -32 c0 -18 -4 -33 -10 -33 -5 0 -10 -5 -10 -12 0
-9 3 -9 12 0 8 8 15 9 25 1 10 -9 13 -5 14 22 1 19 1 38 0 43 -1 5 4 13 11 17
10 7 10 9 0 9 -7 0 -17 -10 -22 -22 -8 -22 -9 -21 -11 7 -1 17 -2 36 -2 43 1
7 -1 11 -4 8 -3 -3 -19 4 -34 15 -16 11 -29 16 -29 10z m77 -133 c-3 -8 -6 -5
-6 6 -1 11 2 17 5 13 3 -3 4 -12 1 -19z"/>
<path d="M2071 148 c-6 -16 -4 -25 5 -31 19 -11 18 -47 -1 -47 -18 0 -20 16
-2 23 7 3 6 6 -5 6 -9 1 -19 -3 -23 -9 -3 -5 -12 -7 -20 -3 -10 3 -15 -1 -15
-15 0 -12 -4 -24 -10 -27 -5 -3 -10 -12 -10 -18 0 -7 6 -4 14 5 7 10 16 15 20
11 4 -4 9 3 13 16 3 12 9 19 12 13 3 -5 17 -12 31 -15 25 -6 26 -4 22 28 -2
19 -8 35 -13 35 -5 0 -9 5 -9 11 0 5 5 7 10 4 6 -3 10 3 10 14 0 28 -19 27
-29 -1z m-44 -90 c-3 -8 -6 -5 -6 6 -1 11 2 17 5 13 3 -3 4 -12 1 -19z"/>
<path d="M300 151 c0 -6 9 -16 21 -24 13 -9 16 -17 10 -22 -11 -6 -16 -55 -5
-55 13 0 44 22 44 31 0 6 -4 8 -9 4 -5 -3 -12 -1 -16 5 -3 5 4 15 17 20 47 22
73 40 57 40 -8 0 -24 -7 -35 -15 -26 -20 -40 -19 -64 5 -11 11 -20 16 -20 11z
m45 -70 c3 -5 1 -12 -5 -16 -5 -3 -10 1 -10 9 0 18 6 21 15 7z"/>
<path d="M400 108 c0 -11 10 -18 27 -20 14 -2 28 -9 31 -16 3 -11 0 -12 -15
-3 -14 7 -23 7 -31 -1 -8 -8 -14 -5 -21 13 -7 16 -10 19 -10 7 -1 -18 15 -32
39 -33 45 -4 51 -6 45 -15 -4 -6 -11 -8 -16 -5 -5 4 -9 1 -9 -4 0 -6 -9 -11
-20 -11 -11 0 -20 -4 -20 -8 0 -4 9 -8 20 -9 11 -1 20 3 20 9 0 5 7 7 16 4 8
-3 12 -2 9 3 -3 6 3 14 12 20 10 6 12 11 6 11 -7 0 -13 9 -13 21 0 19 -26 35
-46 29 -4 -1 -11 4 -15 12 -7 10 -9 9 -9 -4z"/>
<path d="M1988 98 c-7 -13 -19 -35 -26 -50 -6 -16 -18 -28 -27 -28 -8 0 -15
-4 -15 -10 0 -12 11 -13 26 -2 13 9 66 104 61 109 -3 2 -11 -7 -19 -19z"/>
<path d="M694 80 c0 -13 4 -16 10 -10 7 7 7 13 0 20 -6 6 -10 3 -10 -10z"/>
<path d="M2115 85 c4 -11 8 -25 8 -31 0 -6 9 -9 20 -6 17 4 17 6 3 14 -8 5
-20 16 -26 26 -10 15 -11 15 -5 -3z"/>
<path d="M2137 84 c2 -7 11 -10 19 -7 9 3 14 -1 14 -12 0 -10 11 -28 25 -41
17 -16 25 -19 25 -9 0 8 -9 19 -20 25 -11 6 -20 19 -20 29 0 12 -9 20 -24 23
-17 3 -23 1 -19 -8z"/>
<path d="M647 84 c-3 -3 -3 -12 0 -20 3 -8 -1 -14 -11 -14 -11 0 -16 -8 -15
-27 l1 -28 8 25 c4 14 8 19 9 13 1 -19 38 -16 45 3 5 14 4 15 -9 4 -9 -7 -19
-10 -23 -6 -4 4 1 12 11 17 20 12 23 39 4 39 -8 0 -16 -3 -20 -6z m23 -14 c0
-5 -2 -10 -4 -10 -3 0 -8 5 -11 10 -3 6 -1 10 4 10 6 0 11 -4 11 -10z"/>
<path d="M232 62 c-14 -4 -16 -38 -3 -47 5 -3 16 3 23 14 16 23 54 21 52 -3
-1 -9 2 -16 7 -16 5 0 9 5 9 10 0 6 9 10 19 10 11 0 23 -4 26 -10 11 -17 25
-11 25 10 0 18 -4 20 -35 14 -19 -3 -41 -2 -48 4 -15 11 -58 20 -75 14z m9
-29 c-8 -15 -10 -15 -11 -2 0 17 10 32 18 25 2 -3 -1 -13 -7 -23z"/>
<path d="M488 63 c7 -3 16 -2 19 1 4 3 -2 6 -13 5 -11 0 -14 -3 -6 -6z"/>
<path d="M785 50 c-6 -9 11 -50 21 -50 2 0 0 9 -6 19 -5 11 -6 22 -1 25 12 8
21 -4 21 -27 0 -11 3 -18 6 -14 4 3 4 18 0 32 -6 25 -29 34 -41 15z"/>
<path d="M165 30 c-4 -12 -5 -24 -2 -27 3 -2 8 5 12 17 4 12 5 24 2 27 -3 2
-8 -5 -12 -17z"/>
<path d="M2046 26 c3 -8 15 -16 27 -20 21 -5 21 -4 4 9 -18 13 -17 14 10 18
24 3 22 4 -9 6 -28 1 -36 -2 -32 -13z"/>
<path d="M2150 35 c0 -5 5 -17 10 -25 5 -8 10 -11 10 -5 0 6 -5 17 -10 25 -5
8 -10 11 -10 5z"/>
<path d="M273 23 c-18 -7 -16 -20 2 -20 8 0 15 6 15 14 0 7 -1 13 -2 12 -2 0
-9 -3 -15 -6z"/>
<path d="M2230 26 c0 -2 7 -9 15 -16 9 -7 15 -8 15 -2 0 5 -7 12 -15 16 -8 3
-15 4 -15 2z"/>
<path d="M2313 22 c-33 -5 -28 -18 7 -17 17 0 30 3 30 7 0 11 -13 14 -37 10z"/>
<path d="M2010 12 c0 -5 7 -9 15 -9 8 0 15 4 15 9 0 4 -7 8 -15 8 -8 0 -15 -4
-15 -8z"/>
</g>
</svg>
